1. Sang-hoon is a scamp working to get money from debtors to creditors. One day, he encounters Youn-hee, a high school student. Both of them have gone through unhappy childhood with crashed families. The film contains the autobiographical thoughts of Yang Ik-joon, the film's director.

2. After witnessing the deaths of his mother and sister during childhood, Sang-hoon grew up along with violence. To punish his father for destorying the family, Sang-hoon visits his father regularly with rampage. One day, he meets a teenage girl, Yon-hi. As encounter piles up, Sanghoon and Yonhi find themselves in each other. But their link started long time ago. Out of blind, Sang-hoon, Yon-hi, and others among them reach out for more relationships.


P.S. sorry for shitty rip, but that was autoencode, so...

=========
MediaInfo
=========

General
Complete name                    : C:\Breathless.2009.DVDRip.x264-dhamster.mkv
Format                           : Matroska
File size                        : 1.44 GiB
Duration                         : 2h 10mn
Overall bit rate                 : 1 576 Kbps
Movie name                       : ë˜¥íŒŒë¦¬ (Breathless)
Encoded date                     : UTC 2010-12-08 07:19:43
Writing application              : mkvmerge v4.4.0 ('Die Wiederkehr') built on Oct 31 2010 21:52:48
Writing library                  : libebml v1.0.0 + libmatroska v1.0.0
Cover                            : Synapsis / Poster

Video
ID                               : 1
Format                           : AVC
Format/Info                      : Advanced Video Codec
Format profile                   : Main@L3.0
Format settings, CABAC           : Yes
Format settings, ReFrames        : 2 frames
Muxing mode                      : Header stripping
Codec ID                         : V_MPEG4/ISO/AVC
Duration                         : 2h 10mn
Bit rate                         : 1 124 Kbps
Width                            : 718 pixels
Height                           : 468 pixels
Display aspect ratio             : 16:9
Original display aspect ratio    : 16:9
Frame rate                       : 23.976 fps
Color space                      : YUV
Chroma subsampling               : 4:2:0
Bit depth                        : 8 bits
Scan type                        : Progressive
Bits/(Pixel*Frame)               : 0.140
Stream size                      : 1 023 MiB (70%)
Writing library                  : x264 core 79
Encoding settings                : cabac=1 / ref=2 / deblock=1:0:0 / analyse=0x1:0x111 / me=umh / subme=6 / psy=1 / psy_rd=1.0:0.0 / mixed_ref=0 / me_range=16 / chroma_me=1 / trellis=0 / 8x8dct=0 / cqm=0 / deadzone=21,11 / chroma_qp_offset=-2 / threads=1 / nr=0 / decimate=1 / mbaff=0 / constrained_intra=0 / bframes=2 / b_pyramid=0 / b_adapt=2 / b_bias=0 / direct=1 / wpredb=0 / wpredp=2 / keyint=240 / keyint_min=24 / scenecut=40 / rc_lookahead=40 / rc=2pass / mbtree=1 / bitrate=1124 / ratetol=1.0 / qcomp=0.60 / qpmin=10 / qpmax=51 / qpstep=4 / cplxblur=20.0 / qblur=0.5 / ip_ratio=1.40 / aq=1:1.00
Language                         : Korean
Color primaries                  : BT.601-6 525, BT.1358 525, BT.1700 NTSC, SMPTE 170M
Transfer characteristics         : BT.709-5, BT.1361
Matrix coefficients              : BT.601-6 525, BT.1358 525, BT.1700 NTSC, SMPTE 170M

Audio
ID                               : 2
Format                           : AC-3
Format/Info                      : Audio Coding 3
Mode extension                   : CM (complete main)
Muxing mode                      : Header stripping
Codec ID                         : A_AC3
Duration                         : 2h 10mn
Bit rate mode                    : Constant
Bit rate                         : 448 Kbps
Channel(s)                       : 6 channels
Channel positions                : Front: L C R, Side: L R, LFE
Sampling rate                    : 48.0 KHz
Bit depth                        : 16 bits
Stream size                      : 418 MiB (28%)
Language                         : Korean

Text #1
ID                               : 3
Format                           : VobSub
Muxing mode                      : zlib
Codec ID                         : S_VOBSUB
Codec ID/Info                    : The same subtitle format used on DVDs
Language                         : English

Text #2
ID                               : 4
Format                           : VobSub
Muxing mode                      : zlib
Codec ID                         : S_VOBSUB
Codec ID/Info                    : The same subtitle format used on DVDs
Language                         : Korean